<svg xmlns="http://www.w3.org/2000/svg" viewBox="0 0 512 512" xml:space="preserve">
  <path d="M192 64H85.333C73.551 64 64 73.551 64 85.333v256c0 11.782 9.551 21.333 21.333 21.333H192c11.782 0 21.333-9.551 21.333-21.333v-256C213.333 73.551 203.782 64 192 64zm-85.333 128h64v42.667h-64V192zm64-85.333v42.667h-64v-42.667h64zm-64 213.333v-42.667h64V320h-64zM170.667 405.333h-64c-11.782 0-21.333 9.551-21.333 21.333S94.885 448 106.667 448h64c11.782 0 21.333-9.551 21.333-21.333s-9.551-21.334-21.333-21.334z"/>
  <path d="M490.667 0H21.333C9.551 0 0 9.551 0 21.333v469.333C0 502.449 9.551 512 21.333 512h469.334c11.782 0 21.333-9.551 21.333-21.333V21.333C512 9.551 502.449 0 490.667 0zm-448 42.667h192v426.667h-192V42.667zm426.666 426.666h-192V42.667h192v426.666z"/>
  <path d="M320 362.667h106.667c11.782 0 21.333-9.551 21.333-21.333v-256C448 73.551 438.449 64 426.667 64H320c-11.782 0-21.333 9.551-21.333 21.333v256c0 11.782 9.551 21.334 21.333 21.334zm85.333-128h-64V192h64v42.667zm-64 85.333v-42.667h64V320h-64zm64-213.333v42.667h-64v-42.667h64zM405.333 405.333h-64c-11.782 0-21.333 9.551-21.333 21.333S329.551 448 341.333 448h64c11.782 0 21.333-9.551 21.333-21.333s-9.551-21.334-21.333-21.334z"/>
</svg>
